<svg xmlns="http://www.w3.org/2000/svg" width="48" height="48" viewBox="0 0 48 48" fill="none">
  <rect opacity="0.5" width="48" height="48" />
  <path d="M36.9015 32.7643C36.1991 31.1296 35.1799 29.6448 33.9005 28.3926C32.625 27.1367 31.114 26.1355 29.451 25.444C29.4361 25.4367 29.4212 25.433 29.4063 25.4257C31.726 23.7795 33.234 21.098 33.234 18.0726C33.234 13.0607 29.101 9 24 9C18.899 9 14.766 13.0607 14.766 18.0726C14.766 21.098 16.274 23.7795 18.5937 25.4294C18.5788 25.4367 18.5639 25.4404 18.549 25.4477C16.8809 26.1391 15.3841 27.1305 14.0995 28.3963C12.8213 29.6495 11.8022 31.134 11.0985 32.7679C10.4071 34.3675 10.0343 36.0825 10.0001 37.82C9.9991 37.8591 10.0061 37.8979 10.0206 37.9343C10.0351 37.9706 10.0569 38.0038 10.0847 38.0317C10.1124 38.0597 10.1456 38.0819 10.1822 38.097C10.2189 38.1122 10.2582 38.12 10.298 38.12H12.532C12.6958 38.12 12.8261 37.992 12.8299 37.8347C12.9043 35.0105 14.0586 32.3655 16.099 30.3608C18.2101 28.2865 21.0139 27.1451 24 27.1451C26.9862 27.1451 29.7899 28.2865 31.901 30.3608C33.9414 32.3655 35.0957 35.0105 35.1701 37.8347C35.1739 37.9956 35.3042 38.12 35.468 38.12H37.702C37.7418 38.12 37.7811 38.1122 37.8178 38.097C37.8544 38.0819 37.8876 38.0597 37.9153 38.0317C37.9431 38.0038 37.9649 37.9706 37.9794 37.9343C37.9939 37.8979 38.0009 37.8591 37.9999 37.82C37.9627 36.0714 37.5941 34.3703 36.9015 32.7643ZM24 24.3648C22.291 24.3648 20.6825 23.71 19.4724 22.521C18.2623 21.3321 17.5958 19.7517 17.5958 18.0726C17.5958 16.3934 18.2623 14.813 19.4724 13.6241C20.6825 12.4351 22.291 11.7803 24 11.7803C25.709 11.7803 27.3175 12.4351 28.5276 13.6241C29.7377 14.813 30.4042 16.3934 30.4042 18.0726C30.4042 19.7517 29.7377 21.3321 28.5276 22.521C27.3175 23.71 25.709 24.3648 24 24.3648Z" fill="#34C759"/>
</svg>